<mxfile host="app.diagrams.net" agent="Mozilla/5.0 (X11; Linux x86_64; rv:131.0) Gecko/20100101 Firefox/131.0" version="26.1.0">
  <diagram id="a45cf8ec-cd66-6f27-3ac3-be6e809c9e4a" name="Page-1">
    <mxGraphModel dx="1334" dy="489" grid="1" gridSize="4" guides="1" tooltips="1" connect="1" arrows="1" fold="1" page="1" pageScale="1" pageWidth="827" pageHeight="1169" background="none" math="0" shadow="0">
      <root>
        <mxCell id="0" />
        <mxCell id="1" parent="0" />
        <mxCell id="171" style="edgeStyle=orthogonalEdgeStyle;rounded=0;jumpStyle=none;html=1;exitX=0;exitY=0.5;entryX=0;entryY=0.5;shadow=0;labelBackgroundColor=none;startArrow=none;startFill=0;endArrow=classic;endFill=1;endSize=6;jettySize=auto;orthogonalLoop=1;strokeColor=#23445D;strokeWidth=2;fillColor=#F08705;fontFamily=Helvetica;fontSize=14;fontColor=#F08705;align=left;fontStyle=0" parent="1" edge="1">
          <mxGeometry relative="1" as="geometry">
            <mxPoint x="-553" y="501.49999999999955" as="sourcePoint" />
            <mxPoint x="-553" y="501.49999999999955" as="targetPoint" />
          </mxGeometry>
        </mxCell>
        <mxCell id="4C0BwEDokxpnOY0oktvk-178" value="" style="group;fillColor=#d5e8d4;strokeColor=#82b366;" vertex="1" connectable="0" parent="1">
          <mxGeometry x="-670" y="1020" width="60" height="80" as="geometry" />
        </mxCell>
        <mxCell id="4C0BwEDokxpnOY0oktvk-173" value="" style="verticalLabelPosition=bottom;outlineConnect=0;align=center;dashed=0;html=1;verticalAlign=top;shape=mxgraph.pid2misc.fan;fanType=common;points=[[1,0.5,0,0,0]];" vertex="1" parent="4C0BwEDokxpnOY0oktvk-178">
          <mxGeometry x="5" y="30" width="50" height="50" as="geometry" />
        </mxCell>
        <mxCell id="4C0BwEDokxpnOY0oktvk-175" value="T1" style="text;html=1;align=center;verticalAlign=middle;whiteSpace=wrap;rounded=0;movable=1;resizable=1;rotatable=1;deletable=1;editable=1;locked=0;connectable=1;" vertex="1" parent="4C0BwEDokxpnOY0oktvk-178">
          <mxGeometry width="60" height="30" as="geometry" />
        </mxCell>
        <mxCell id="4C0BwEDokxpnOY0oktvk-179" value="" style="group;fillColor=#d5e8d4;strokeColor=#82b366;" vertex="1" connectable="0" parent="1">
          <mxGeometry x="-190" y="1020" width="60" height="80" as="geometry" />
        </mxCell>
        <mxCell id="4C0BwEDokxpnOY0oktvk-174" value="" style="verticalLabelPosition=bottom;outlineConnect=0;align=center;dashed=0;html=1;verticalAlign=top;shape=mxgraph.pid2misc.fan;fanType=common;gradientColor=none;shadow=0;points=[[0.5,1,0,0,0]];" vertex="1" parent="4C0BwEDokxpnOY0oktvk-179">
          <mxGeometry x="5" y="30" width="50" height="50" as="geometry" />
        </mxCell>
        <mxCell id="4C0BwEDokxpnOY0oktvk-176" value="T2" style="text;html=1;align=center;verticalAlign=middle;whiteSpace=wrap;rounded=0;" vertex="1" parent="4C0BwEDokxpnOY0oktvk-179">
          <mxGeometry width="60" height="30" as="geometry" />
        </mxCell>
        <mxCell id="4C0BwEDokxpnOY0oktvk-181" value="&lt;table cellpadding=&quot;4&quot; cellspacing=&quot;0&quot; border=&quot;0&quot; style=&quot;width: 100%; height: 100%;&quot;&gt;&lt;tbody&gt;&lt;tr&gt;&lt;td&gt;T-PLC&lt;br&gt;&lt;/td&gt;&lt;/tr&gt;&lt;tr&gt;&lt;td&gt;2&lt;br&gt;&lt;/td&gt;&lt;/tr&gt;&lt;/tbody&gt;&lt;/table&gt; " style="html=1;outlineConnect=0;align=center;dashed=0;aspect=fixed;shape=mxgraph.pid2inst.progLogCont;mounting=field;fontSize=8;" vertex="1" parent="1">
          <mxGeometry x="-108" y="1050" width="50" height="50" as="geometry" />
        </mxCell>
        <mxCell id="4C0BwEDokxpnOY0oktvk-183" value="&lt;table cellpadding=&quot;4&quot; cellspacing=&quot;0&quot; border=&quot;0&quot; style=&quot;width: 100%; height: 100%;&quot;&gt;&lt;tbody&gt;&lt;tr&gt;&lt;td&gt;T-PLC&lt;br&gt;&lt;/td&gt;&lt;/tr&gt;&lt;tr&gt;&lt;td&gt;1&lt;br&gt;&lt;/td&gt;&lt;/tr&gt;&lt;/tbody&gt;&lt;/table&gt; " style="html=1;outlineConnect=0;align=center;dashed=0;aspect=fixed;shape=mxgraph.pid2inst.progLogCont;mounting=field;labelPosition=center;verticalLabelPosition=middle;verticalAlign=middle;fontSize=8;" vertex="1" parent="1">
          <mxGeometry x="-589.9999999999998" y="1040" width="50" height="50" as="geometry" />
        </mxCell>
        <mxCell id="4C0BwEDokxpnOY0oktvk-215" value="" style="group" vertex="1" connectable="0" parent="1">
          <mxGeometry x="-283.9999999999999" y="1030.952380952381" width="75.09999999999991" height="58.095238095238074" as="geometry" />
        </mxCell>
        <mxCell id="4C0BwEDokxpnOY0oktvk-216" value="" style="rounded=0;whiteSpace=wrap;html=1;rotation=-180;fillColor=#f8cecc;strokeColor=#b85450;" vertex="1" parent="4C0BwEDokxpnOY0oktvk-215">
          <mxGeometry x="8.67" y="26.8" width="32" height="4.5" as="geometry" />
        </mxCell>
        <mxCell id="4C0BwEDokxpnOY0oktvk-217" value="" style="group" vertex="1" connectable="0" parent="4C0BwEDokxpnOY0oktvk-215">
          <mxGeometry x="18.199999999999932" width="56.89999999999999" height="58.0952380952381" as="geometry" />
        </mxCell>
        <mxCell id="4C0BwEDokxpnOY0oktvk-218" value="" style="group" vertex="1" connectable="0" parent="4C0BwEDokxpnOY0oktvk-217">
          <mxGeometry y="3.552713678800501e-15" width="56.9" height="58.095238095238116" as="geometry" />
        </mxCell>
        <mxCell id="4C0BwEDokxpnOY0oktvk-219" value="" style="verticalLabelPosition=bottom;verticalAlign=top;html=1;shape=mxgraph.basic.half_circle;rotation=-270;" vertex="1" parent="4C0BwEDokxpnOY0oktvk-218">
          <mxGeometry x="-1.1999999999999993" y="17.79761904761905" width="58.095238095238095" height="22.5" as="geometry" />
        </mxCell>
        <mxCell id="4C0BwEDokxpnOY0oktvk-220" value="&lt;div&gt;Pitch&lt;/div&gt;&lt;div&gt;2&lt;br&gt;&lt;/div&gt;" style="text;html=1;align=center;verticalAlign=middle;whiteSpace=wrap;rounded=0;fontSize=9;" vertex="1" parent="4C0BwEDokxpnOY0oktvk-218">
          <mxGeometry y="14.047619047619051" width="56.9" height="30" as="geometry" />
        </mxCell>
        <mxCell id="4C0BwEDokxpnOY0oktvk-222" value="" style="verticalLabelPosition=bottom;shadow=0;dashed=0;align=center;html=1;verticalAlign=top;shape=mxgraph.electrical.rot_mech.verticalLabelPosition=bottom;shadow=0;dashed=0;align=center;fillColor=#f8cecc;html=1;verticalAlign=top;strokeWidth=1;shape=mxgraph.electrical.rot_mech.rotation;rotation=-91;strokeColor=#b85450;" vertex="1" parent="4C0BwEDokxpnOY0oktvk-218">
          <mxGeometry x="-5.100000000000023" y="25.04761904761881" width="17" height="8" as="geometry" />
        </mxCell>
        <mxCell id="4C0BwEDokxpnOY0oktvk-209" value="" style="group" vertex="1" connectable="0" parent="1">
          <mxGeometry x="-747.9999999999999" y="1040.002380952381" width="75.09999999999991" height="58.095238095238074" as="geometry" />
        </mxCell>
        <mxCell id="4C0BwEDokxpnOY0oktvk-185" value="" style="rounded=0;whiteSpace=wrap;html=1;rotation=-180;fillColor=#f8cecc;strokeColor=#b85450;" vertex="1" parent="4C0BwEDokxpnOY0oktvk-209">
          <mxGeometry x="8.67" y="26.8" width="32" height="4.5" as="geometry" />
        </mxCell>
        <mxCell id="4C0BwEDokxpnOY0oktvk-193" value="" style="group" vertex="1" connectable="0" parent="4C0BwEDokxpnOY0oktvk-209">
          <mxGeometry x="18.199999999999932" width="56.89999999999999" height="58.0952380952381" as="geometry" />
        </mxCell>
        <mxCell id="4C0BwEDokxpnOY0oktvk-197" value="" style="group" vertex="1" connectable="0" parent="4C0BwEDokxpnOY0oktvk-193">
          <mxGeometry y="3.552713678800501e-15" width="56.9" height="58.095238095238116" as="geometry" />
        </mxCell>
        <mxCell id="4C0BwEDokxpnOY0oktvk-184" value="" style="verticalLabelPosition=bottom;verticalAlign=top;html=1;shape=mxgraph.basic.half_circle;rotation=-270;" vertex="1" parent="4C0BwEDokxpnOY0oktvk-197">
          <mxGeometry x="-1.1999999999999993" y="17.79761904761905" width="58.095238095238095" height="22.5" as="geometry" />
        </mxCell>
        <mxCell id="4C0BwEDokxpnOY0oktvk-192" value="&lt;div&gt;Pitch&lt;/div&gt;&lt;div&gt;1&lt;br&gt;&lt;/div&gt;" style="text;html=1;align=center;verticalAlign=middle;whiteSpace=wrap;rounded=0;fontSize=9;" vertex="1" parent="4C0BwEDokxpnOY0oktvk-197">
          <mxGeometry y="14.047619047619051" width="56.9" height="30" as="geometry" />
        </mxCell>
        <mxCell id="4C0BwEDokxpnOY0oktvk-206" value="" style="verticalLabelPosition=bottom;shadow=0;dashed=0;align=center;html=1;verticalAlign=top;shape=mxgraph.electrical.rot_mech.verticalLabelPosition=bottom;shadow=0;dashed=0;align=center;fillColor=#f8cecc;html=1;verticalAlign=top;strokeWidth=1;shape=mxgraph.electrical.rot_mech.rotation;rotation=-91;strokeColor=#b85450;" vertex="1" parent="4C0BwEDokxpnOY0oktvk-197">
          <mxGeometry x="-5.100000000000023" y="25.04761904761881" width="17" height="8" as="geometry" />
        </mxCell>
        <mxCell id="4C0BwEDokxpnOY0oktvk-232" value="" style="group;rotation=90;" vertex="1" connectable="0" parent="1">
          <mxGeometry x="-181.29999999999998" y="951.35" width="51.3" height="55" as="geometry" />
        </mxCell>
        <mxCell id="4C0BwEDokxpnOY0oktvk-223" value="" style="rounded=0;whiteSpace=wrap;html=1;rotation=-90;fillColor=#dae8fc;strokeColor=#6c8ebf;" vertex="1" parent="4C0BwEDokxpnOY0oktvk-232">
          <mxGeometry x="6.23" y="21.14" width="29.31" height="4.17" as="geometry" />
        </mxCell>
        <mxCell id="4C0BwEDokxpnOY0oktvk-224" value="" style="verticalLabelPosition=bottom;verticalAlign=top;html=1;shape=mxgraph.basic.half_circle;rotation=-180;" vertex="1" parent="4C0BwEDokxpnOY0oktvk-232">
          <mxGeometry x="-4.476625805111153" y="33.338360655737716" width="52.01412840224388" height="20.836475409836073" as="geometry" />
        </mxCell>
        <mxCell id="4C0BwEDokxpnOY0oktvk-225" value="" style="verticalLabelPosition=bottom;shadow=0;dashed=0;align=center;html=1;verticalAlign=top;shape=mxgraph.electrical.rot_mech.verticalLabelPosition=bottom;shadow=0;dashed=0;align=center;fillColor=#dae8fc;html=1;verticalAlign=top;strokeWidth=1;shape=mxgraph.electrical.rot_mech.rotation;rotation=-1;strokeColor=#6c8ebf;" vertex="1" parent="4C0BwEDokxpnOY0oktvk-232">
          <mxGeometry x="13.429877415333461" y="17.595245901639352" width="15.220527737377921" height="7.408524590163937" as="geometry" />
        </mxCell>
        <mxCell id="4C0BwEDokxpnOY0oktvk-233" value="&lt;div&gt;Yaw&lt;/div&gt;&lt;div&gt;2&lt;br&gt;&lt;/div&gt;" style="text;html=1;align=center;verticalAlign=middle;whiteSpace=wrap;rounded=0;fontSize=8;" vertex="1" parent="4C0BwEDokxpnOY0oktvk-232">
          <mxGeometry x="-8.470000000000017" y="28.759999999999998" width="60" height="30" as="geometry" />
        </mxCell>
        <mxCell id="4C0BwEDokxpnOY0oktvk-234" value="" style="group;rotation=90;" vertex="1" connectable="0" parent="1">
          <mxGeometry x="-664" y="936" width="51.3" height="55" as="geometry" />
        </mxCell>
        <mxCell id="4C0BwEDokxpnOY0oktvk-235" value="" style="rounded=0;whiteSpace=wrap;html=1;rotation=-90;fillColor=#dae8fc;strokeColor=#6c8ebf;" vertex="1" parent="4C0BwEDokxpnOY0oktvk-234">
          <mxGeometry x="6.23" y="21.14" width="29.31" height="4.17" as="geometry" />
        </mxCell>
        <mxCell id="4C0BwEDokxpnOY0oktvk-236" value="" style="verticalLabelPosition=bottom;verticalAlign=top;html=1;shape=mxgraph.basic.half_circle;rotation=-180;" vertex="1" parent="4C0BwEDokxpnOY0oktvk-234">
          <mxGeometry x="-4.476625805111153" y="33.338360655737716" width="52.01412840224388" height="20.836475409836073" as="geometry" />
        </mxCell>
        <mxCell id="4C0BwEDokxpnOY0oktvk-237" value="" style="verticalLabelPosition=bottom;shadow=0;dashed=0;align=center;html=1;verticalAlign=top;shape=mxgraph.electrical.rot_mech.verticalLabelPosition=bottom;shadow=0;dashed=0;align=center;html=1;verticalAlign=top;strokeWidth=1;shape=mxgraph.electrical.rot_mech.rotation;rotation=-1;fillColor=#dae8fc;strokeColor=#6c8ebf;" vertex="1" parent="4C0BwEDokxpnOY0oktvk-234">
          <mxGeometry x="13.429877415333461" y="17.595245901639352" width="15.220527737377921" height="7.408524590163937" as="geometry" />
        </mxCell>
        <mxCell id="4C0BwEDokxpnOY0oktvk-238" value="&lt;div&gt;Yaw&lt;/div&gt;&lt;div&gt;1&lt;br&gt;&lt;/div&gt;" style="text;html=1;align=center;verticalAlign=middle;whiteSpace=wrap;rounded=0;fontSize=8;" vertex="1" parent="4C0BwEDokxpnOY0oktvk-234">
          <mxGeometry x="-8.470000000000017" y="28.759999999999998" width="60" height="30" as="geometry" />
        </mxCell>
      </root>
    </mxGraphModel>
  </diagram>
</mxfile>
